<svg width="78" height="77" viewBox="0 0 78 77" fill="none" xmlns="http://www.w3.org/2000/svg">
<path d="M34.5156 26.9704C37.3213 28.6275 40.2338 30.8056 43.0075 33.6416C48.6635 39.47 51.2985 45.6665 52.5414 49.3026C50.9625 48.8883 48.7861 48.2286 46.256 47.1707C42.3941 45.5296 37.7196 42.9372 33.2141 38.8104C26.3473 32.5534 23.0206 25.7133 21.5039 21.9243C24.0625 22.4613 29.0588 23.7504 34.5156 26.9704Z" fill="#F9B53F"/>
<path d="M75.7604 48.6893C75.9898 47.891 75.531 47.0482 74.7345 46.8028L68.5576 44.9928C67.7592 44.7616 66.9164 45.2221 66.6711 46.0205C66.4417 46.817 66.9022 47.6616 67.6988 47.907L73.8757 49.717C74.0126 49.7615 74.1673 49.7775 74.3042 49.7775C74.9639 49.7775 75.5613 49.349 75.7604 48.6893ZM63.5613 11.7097L66.4577 4.13345C66.7493 3.35111 66.3653 2.47631 65.5829 2.18471C64.8024 1.87889 63.9276 2.27717 63.6377 3.05951L60.7395 10.6357C60.4497 11.4181 60.832 12.2929 61.6143 12.5845C61.7975 12.6449 61.9824 12.6911 62.1495 12.6911C62.7487 12.6911 63.3301 12.3231 63.5613 11.7097ZM29.7643 10.1308C30.4702 9.68448 30.6693 8.73323 30.2248 8.04335L26.9604 2.96705C26.5158 2.26117 25.5646 2.06203 24.8747 2.50832C24.1706 2.95283 23.9715 3.9023 24.416 4.59218L27.6805 9.67026C27.9703 10.1148 28.461 10.3601 28.9518 10.3601C29.2274 10.3744 29.5029 10.2979 29.7643 10.1308ZM38.9141 43.2432C38.6225 43.2432 38.3327 43.1667 38.0713 42.9836C37.3814 42.5231 37.1983 41.5718 37.657 40.882C38.8074 39.1644 41.2593 36.1275 44.6465 35.146C48.6631 33.9956 52.4183 35.0838 56.0508 36.1275C57.0305 36.4031 57.9516 36.6787 58.885 36.8938C60.9245 37.3846 63.0705 37.7686 64.8326 37.2014C66.7493 36.588 68.3887 34.9611 69.7364 33.4426C70.2894 32.815 71.2549 32.7688 71.8683 33.32C72.4959 33.8729 72.5422 34.8384 71.991 35.4518C70.3658 37.2779 68.3584 39.2568 65.7518 40.0836C63.2839 40.866 60.6489 40.4214 58.1809 39.824C57.1852 39.5787 56.1878 39.3013 55.2223 39.0097C51.8511 38.0442 48.6773 37.1232 45.4893 38.0282C43.681 38.5509 41.7501 40.1921 40.1712 42.5373C39.8796 42.9978 39.4048 43.2432 38.9141 43.2432Z" fill="#F14947"/>
<path d="M60.8489 56.4646C61.6615 56.2815 62.1825 55.4671 61.9975 54.6546L61.1548 50.9278C60.9716 50.1152 60.1591 49.6085 59.3465 49.7774C58.5339 49.9623 58.013 50.7749 58.1961 51.5875L59.0407 55.3142C59.1936 56.0201 59.8212 56.4948 60.5111 56.4948C60.6178 56.5108 60.7405 56.4948 60.8489 56.4646ZM77.0949 29.6553C77.6318 29.0099 77.5554 28.0604 76.9117 27.5235C75.884 26.6487 74.1522 25.5445 71.7465 25.1765C69.003 24.7462 66.7645 25.5285 65.6763 26.0353C64.926 26.3873 64.5881 27.2923 64.9402 28.0444C65.294 28.7965 66.1973 29.1326 66.9494 28.7805C67.7299 28.4125 69.3248 27.8595 71.286 28.1671C72.9876 28.4285 74.2287 29.2251 74.9648 29.8545C75.2404 30.0999 75.5924 30.2065 75.9303 30.2065C76.3748 30.2065 76.8033 30.0234 77.0949 29.6553ZM33.2146 40.3289C32.7541 40.3289 32.3096 40.1298 32.018 39.7475C31.5131 39.0878 31.6358 38.1366 32.2936 37.6298C35.2985 35.2988 37.1992 32.7225 37.9033 29.9612C38.7461 26.6789 37.8429 23.7647 36.8774 20.6816C35.8355 17.3229 34.6389 13.5196 35.8355 9.02653C36.5556 6.27946 38.026 3.73509 40.1881 1.46453C40.7695 0.865336 41.7208 0.835109 42.3182 1.41831C42.9156 2.0015 42.9459 2.95275 42.3644 3.55017C40.5562 5.45268 39.3293 7.55432 38.7461 9.79287C37.7807 13.4432 38.7461 16.5263 39.7578 19.7766C40.8015 23.1371 41.8897 26.6024 40.8318 30.7133C39.9427 34.1484 37.69 37.2778 34.1339 40.0231C33.8583 40.2382 33.5365 40.3289 33.2146 40.3289Z" fill="#446DB7"/>
<path d="M22.974 17.5378C23.159 16.7253 22.6522 15.9127 21.8397 15.7278L17.119 14.6539C16.3064 14.4707 15.4956 14.9757 15.3107 15.79C15.1276 16.6026 15.6325 17.4152 16.4451 17.6001L21.1658 18.6722C21.2725 18.7042 21.3951 18.7042 21.5036 18.7042C22.1935 18.7042 22.8211 18.2277 22.974 17.5378ZM33.2138 38.8263C31.2366 37.0323 29.5652 35.192 28.1392 33.3962C26.9444 31.8777 25.9167 30.3913 25.0597 28.9955C23.3581 26.2182 22.2237 23.7343 21.5036 21.9545L13.7016 41.7867L11.7404 46.7706L0 76.679L5.04074 74.0564L9.34893 71.8178L31.0677 60.4988L35.8186 58.0291L52.541 49.3167C48.5245 48.2588 40.678 45.6202 33.2138 38.8263ZM49.8118 12.6909C49.337 12.6909 48.8623 12.4615 48.5707 12.0313C48.0959 11.3414 48.2649 10.4061 48.953 9.93139C49.5984 9.48688 51.1453 8.2138 51.6058 5.97347C51.9578 4.25589 51.4831 2.8299 51.1613 2.12402C50.8235 1.35769 51.1613 0.466888 51.9276 0.130839C52.694 -0.206989 53.583 0.130839 53.919 0.897174C54.3795 1.92488 55.0854 4.04075 54.5627 6.5869C53.8888 9.89938 51.62 11.7717 50.6705 12.4313C50.4092 12.5984 50.1034 12.6909 49.8118 12.6909Z" fill="#3BA27A"/>
<path d="M33.2123 56.0963C31.7098 56.0963 30.483 57.3072 30.483 58.8256C30.483 59.4551 30.6981 60.0383 31.0502 60.4988L35.8011 58.0291C35.465 56.9089 34.4231 56.0963 33.2123 56.0963ZM13.7001 41.7867L11.7389 46.7705C12.1532 47.0319 12.6279 47.1706 13.1489 47.1706C14.6513 47.1706 15.8764 45.958 15.8764 44.4395C15.8764 43.1362 14.9411 42.0321 13.7001 41.7867ZM41.2739 47.4924C39.7715 47.4924 38.5446 48.7193 38.5446 50.2217C38.5446 51.7259 39.7555 52.9528 41.2739 52.9528C42.7763 52.9528 44.0014 51.7401 44.0014 50.2217C44.0014 48.7193 42.7906 47.4924 41.2739 47.4924ZM19.1409 53.3813C17.6384 53.3813 16.4134 54.5939 16.4134 56.1123C16.4134 57.6148 17.6242 58.8416 19.1409 58.8416C20.6593 58.8416 21.8702 57.6308 21.8702 56.1123C21.8702 54.5939 20.6433 53.3813 19.1409 53.3813ZM6.61814 69.1187C5.11747 69.1187 3.89062 70.3295 3.89062 71.848C3.89062 72.769 4.33514 73.5656 5.02501 74.0723L9.34743 71.8178C9.33142 70.3135 8.12058 69.1187 6.61814 69.1187ZM25.0582 28.9795C24.1692 29.424 23.5557 30.345 23.5557 31.4189C23.5557 32.9214 24.7666 34.1482 26.2832 34.1482C27.0034 34.1482 27.679 33.8566 28.1537 33.3961C26.9429 31.8777 25.9152 30.3912 25.0582 28.9795ZM70.0888 16.8941C68.0494 16.0958 63.8959 14.9756 59.0685 16.2949C52.8614 17.9983 49.6111 22.5839 48.507 24.4864C48.0785 25.2065 48.3238 26.1275 49.0439 26.556C49.2893 26.6947 49.5507 26.7711 49.8103 26.7711C50.3312 26.7711 50.838 26.4956 51.1136 26.019C52.0328 24.4401 54.7301 20.6369 59.8651 19.2252C63.8497 18.121 67.2991 19.0722 68.9846 19.7159C69.767 20.0235 70.64 19.6234 70.9458 18.8571C71.2534 18.0908 70.8694 17.2 70.0888 16.8941Z" fill="#F9B53F"/>
<path d="M60.6788 55.3443C60.7855 55.3141 60.8477 55.2217 60.8157 55.115L59.8822 51.1268C59.8502 51.0202 59.7595 50.9579 59.6511 50.9899C59.5444 51.0202 59.484 51.1126 59.5142 51.2193L60.4494 55.2074C60.4637 55.2981 60.5401 55.3603 60.6326 55.3603C60.6486 55.3443 60.6628 55.3443 60.6788 55.3443ZM29.0902 9.11711C29.1808 9.05666 29.2128 8.94998 29.1506 8.85752L25.8399 3.5963C25.7794 3.50384 25.671 3.48962 25.5803 3.53585C25.4878 3.5963 25.4576 3.70298 25.5181 3.79544L28.8288 9.05666C28.859 9.11711 28.9212 9.14912 28.9817 9.14912C29.0279 9.13312 29.0581 9.13312 29.0902 9.11711ZM49.6123 25.1461C50.5778 23.5655 53.3977 19.716 58.6714 18.0286C63.7744 16.3733 68.2195 17.737 69.8908 18.3825C69.9815 18.4127 70.09 18.3665 70.1362 18.274C70.1806 18.1816 70.1202 18.0589 70.0277 18.0286C67.9136 17.2001 63.5912 16.0355 58.5629 17.6606C53.1844 19.3942 50.2862 23.3361 49.2905 24.9452C49.23 25.0377 49.2602 25.1461 49.3527 25.2066C49.3829 25.2226 49.4131 25.2368 49.4434 25.2368C49.5056 25.2368 49.566 25.2066 49.6123 25.1461ZM34.4687 39.9305C34.531 39.8541 34.531 39.7314 34.4545 39.6709C31.6025 37.2012 29.0439 34.3937 26.8676 31.3266C25.2585 29.072 23.8485 26.6486 22.6679 24.1327C22.6216 24.042 22.515 23.9957 22.4225 24.042C22.33 24.0864 22.2838 24.1949 22.33 24.2873C23.5267 26.8175 24.9367 29.2552 26.56 31.5417C28.7523 34.6391 31.3269 37.4768 34.2091 39.9465C34.2394 39.9768 34.2856 39.9928 34.3318 39.9928C34.378 39.9928 34.4385 39.9768 34.4687 39.9305ZM39.2054 52.0016C39.2979 51.9394 39.3121 51.8167 39.2516 51.7403C38.4391 50.6059 38.6684 49.011 39.7726 48.1984C40.3096 47.7983 41.0137 47.6294 41.7036 47.7521C42.4094 47.8748 43.0211 48.2749 43.4211 48.8723C43.4816 48.9647 43.5883 48.9807 43.6807 48.9185C43.7732 48.8581 43.7874 48.7496 43.727 48.6571C43.2665 47.9673 42.5766 47.5227 41.7658 47.3841C40.9835 47.2472 40.1709 47.4303 39.5432 47.8908C38.2862 48.8261 38.0106 50.6521 38.944 51.9554C38.976 52.0016 39.0365 52.0319 39.0987 52.0319C39.129 52.0319 39.1752 52.0159 39.2054 52.0016ZM4.12115 72.922C4.2136 72.8918 4.27584 72.7833 4.24383 72.6767C3.87756 71.5405 4.30606 70.2994 5.28754 69.686C6.17656 69.133 7.34118 69.1953 8.18397 69.8389C8.26042 69.8994 8.38311 69.8851 8.44534 69.8087C8.50579 69.7322 8.48979 69.6095 8.41333 69.5473C7.43363 68.8112 6.1001 68.7348 5.0884 69.3784C3.95401 70.0843 3.46327 71.496 3.89178 72.8136C3.92378 72.8918 4.00024 72.9523 4.0767 72.9523C4.0767 72.922 4.09092 72.922 4.12115 72.922ZM19.142 59.0107C19.0353 59.0107 18.9589 58.9182 18.9589 58.8257C18.9589 58.7191 19.0513 58.6426 19.142 58.6426C20.5378 58.6426 21.6722 57.5082 21.6722 56.1125C21.6722 54.7167 20.5378 53.5805 19.142 53.5805C19.0353 53.5805 18.9589 53.4898 18.9589 53.3974C18.9589 53.3049 19.0513 53.2125 19.142 53.2125C20.7529 53.2125 22.0544 54.5176 22.0544 56.1267C22.0544 57.7074 20.7529 59.0107 19.142 59.0107Z" fill="#3A5471"/>
</svg>
